<svg xmlns="http://www.w3.org/2000/svg" width="16" height="16" viewBox="0 0 16 16">
    <path fill="#80A737" fill-rule="evenodd" d="M7.529 11.805L4.195 8.472a.667.667 0 0 1 .943-.943l2.195 2.195V.667a.667.667 0 1 1 1.334 0v9.057l2.195-2.195a.667.667 0 0 1 .943.943L8.47 11.805a.668.668 0 0 1-.049.044c-.007.007-.015.012-.023.018l-.029.021-.029.018-.027.016-.03.014-.029.014-.03.01-.032.012-.03.007-.033.008c-.011.003-.023.004-.035.006l-.03.004a.675.675 0 0 1-.13 0l-.03-.004c-.012-.002-.024-.003-.035-.006l-.033-.008-.03-.007-.032-.012-.03-.01-.029-.014-.03-.014-.027-.016-.03-.018-.028-.021-.024-.018a.676.676 0 0 1-.048-.043zm7.804-.471c.369 0 .667.298.667.666v3.334a.667.667 0 0 1-.667.666H.667A.667.667 0 0 1 0 15.334V12a.667.667 0 0 1 1.333 0v2.667h13.334V12c0-.368.298-.666.666-.666z"/>
</svg>
