<svg xmlns="http://www.w3.org/2000/svg" width="16" height="12" viewBox="0 0 16 12">
    <g fill="none" fill-rule="evenodd">
        <path fill="#D73C31" d="M2.293 11.908h11.386c1.265 0 2.293-1.06 2.293-2.37V2.37c0-1.306-1.028-2.37-2.293-2.37H2.293C1.028 0 0 1.06 0 2.37v7.171c-.004 1.305 1.028 2.366 2.293 2.366"/>
        <path fill="#FFF" d="M2.307 9.557a.42.42 0 0 0 .316.148c.098 0 .2-.033.28-.11l3.641-3.311 1.181.945a.407.407 0 0 0 .261.09.412.412 0 0 0 .26-.09l1.22-.974 3.603 3.335a.4.4 0 0 0 .28.11.418.418 0 0 0 .316-.143.448.448 0 0 0-.032-.614l-3.489-3.231 3.47-2.78a.44.44 0 0 0 .074-.61.41.41 0 0 0-.59-.076L7.986 6.34l-1.2-.965L2.884 2.25a.409.409 0 0 0-.59.077.44.44 0 0 0 .074.61L5.87 5.746 2.35 8.948a.432.432 0 0 0-.043.609"/>
    </g>
</svg>
