<svg xmlns="http://www.w3.org/2000/svg" width="16" height="16" viewBox="0 0 16 16">
    <g fill="#3F4044" fill-rule="evenodd">
        <path d="M5.213 7.178c-.136.303-.26.594-.266.914-.004.216.02.433.035.649.052.777.362 1.44.938 1.972.634.587 1.4.857 2.264.873.509.009.986-.11 1.438-.346-.01-.014-.014-.025-.022-.033-.303-.282-.605-.565-.913-.843-.032-.028-.094-.035-.142-.033-.183.006-.368.042-.548.026-.789-.07-1.358-.45-1.66-1.183-.129-.31-.127-.636-.125-.963 0-.048-.011-.111-.043-.14-.311-.297-.628-.589-.956-.893m-1.84-1.752L1.616 3.812 2.382 3l11.486 10.78-.824.814-1.255-1.2c-.258-.247-.518-.493-.772-.744-.065-.064-.121-.069-.204-.042a8.797 8.797 0 0 1-2.321.42c-1.307.058-2.56-.17-3.743-.723-1.587-.742-2.792-1.876-3.585-3.426-.22-.429-.217-.43 0-.861.5-1.001 1.218-1.826 2.116-2.503l.076-.06c.006-.005.008-.014.017-.029M13.064 11.305L11.181 9.57c.332-.828.306-1.642-.094-2.425-.48-.938-1.284-1.47-2.325-1.654-.597-.106-1.19-.055-1.774.098-.033.009-.085.003-.107-.017-.448-.419-.893-.84-1.338-1.262-.006-.005-.008-.013-.022-.038.192-.048.38-.098.567-.143.779-.187 1.568-.29 2.37-.252 1.087.053 2.127.3 3.104.778 1.654.81 2.88 2.03 3.627 3.7a.286.286 0 0 1 .003.202c-.301.758-.776 1.404-1.342 1.988-.251.26-.518.503-.786.761"/>
        <path d="M9.983 8.565L7.997 6.668c1.022-.051 2.036.662 1.986 1.897"/>
    </g>
</svg>
