<svg xmlns="http://www.w3.org/2000/svg" width="17" height="14" viewBox="0 0 17 14">
    <path fill="#3F4044" fill-rule="evenodd" d="M13.364 5.5c0 .874-.299 1.688-.896 2.44-.598.742-1.411 1.329-2.44 1.76-1.03.443-2.148.664-3.354.664a8.616 8.616 0 0 1-1.66-.166 7.908 7.908 0 0 1-2.64 1.229 9.128 9.128 0 0 1-.813.15h-.034a.312.312 0 0 1-.199-.084.288.288 0 0 1-.1-.2.147.147 0 0 1-.016-.065v-.05l.033-.067.017-.05.066-.1c.011.012.028 0 .05-.032.022-.045.033-.061.033-.05.033-.033.105-.11.216-.233.122-.121.205-.215.249-.282.055-.066.127-.16.216-.282a2.05 2.05 0 0 0 .232-.365c.067-.122.133-.26.2-.415-.786-.454-1.4-1.013-1.843-1.677C.227 6.961 0 6.253 0 5.5c0-.874.299-1.688.896-2.44.587-.742 1.395-1.329 2.424-1.76C4.35.857 5.467.636 6.674.636c1.206 0 2.324.221 3.353.664 1.03.431 1.843 1.018 2.44 1.76.598.752.897 1.566.897 2.44zM17 7.924c0 .764-.227 1.477-.68 2.141-.443.653-1.058 1.207-1.843 1.66.066.156.132.3.199.432.066.122.144.244.232.365.089.111.16.2.216.266.044.066.127.16.249.282.11.122.183.2.216.233 0 .01.01.027.033.05l.05.05a.193.193 0 0 1 .033.05.193.193 0 0 0 .033.049l.017.05.033.05c.011.033.011.055 0 .066-.011 0-.017.017-.017.05a.323.323 0 0 1-.116.216.267.267 0 0 1-.216.066 9.128 9.128 0 0 1-.813-.15 8.097 8.097 0 0 1-2.64-1.211c-.564.1-1.118.15-1.66.15-1.715 0-3.21-.421-4.482-1.263.365.034.642.05.83.05a9.99 9.99 0 0 0 2.938-.431 8.672 8.672 0 0 0 2.507-1.229c.786-.576 1.39-1.245 1.81-2.009a4.762 4.762 0 0 0 .647-2.407c0-.487-.072-.968-.216-1.444.808.453 1.45 1.018 1.926 1.693S17 7.149 17 7.924z"/>
</svg>
