<svg xmlns="http://www.w3.org/2000/svg" width="12" height="16" viewBox="0 0 12 16">
    <g fill="none" fill-rule="evenodd">
        <path fill="#D63C32" d="M10.538 6.764h-.164V4.518C10.374 2.027 8.406 0 5.988 0 3.57 0 1.602 2.027 1.602 4.518c0 .313.25.57.554.57a.565.565 0 0 0 .554-.57c0-1.864 1.474-3.382 3.284-3.382 1.81 0 3.283 1.518 3.283 3.382v2.246h-7.84C.645 6.764 0 7.429 0 8.244v6.168c0 .817.645 1.482 1.437 1.482h9.095c.792 0 1.438-.665 1.438-1.482V8.245c0-.816-.64-1.481-1.432-1.481"/>
        <path fill="#FFF" d="M6.146 9.719c-.402-.081-.822.15-.993.546a.935.935 0 0 0 .299 1.136c.073.056.085.106.085.188v1.217a.46.46 0 0 0 .689.408.423.423 0 0 0 .219-.408v-1.217c0-.088.018-.144.097-.201a.903.903 0 0 0 .372-.76.943.943 0 0 0-.768-.91"/>
    </g>
</svg>
