<svg xmlns="http://www.w3.org/2000/svg" width="16" height="16" viewBox="0 0 16 16">
    <path fill="#FFF" fill-rule="evenodd" d="M13 3V1H3v2H0v2c0 .833.292 1.542.875 2.125A2.893 2.893 0 0 0 3 8c.156 0 .31-.013.46-.04.152-.025.3-.059.446-.1.354.52.8.958 1.336 1.312A5.086 5.086 0 0 0 7 9.906V13H6c-.552 0-1.023.195-1.414.586-.39.39-.586.862-.586 1.414h8c0-.552-.195-1.023-.586-1.414A1.927 1.927 0 0 0 10 13H9V9.906a5.086 5.086 0 0 0 1.758-.734 4.786 4.786 0 0 0 1.336-1.313c.146.042.294.076.445.102.151.026.305.039.461.039.833 0 1.542-.292 2.125-.875A2.893 2.893 0 0 0 16 5V3h-3zM3 6.813c-.5 0-.927-.178-1.281-.532A1.746 1.746 0 0 1 1.187 5V4H3v1c0 .313.029.617.086.914.057.297.138.586.242.867A1.554 1.554 0 0 1 3 6.813zM14.813 5c0 .5-.178.927-.532 1.281a1.746 1.746 0 0 1-1.445.524 1.554 1.554 0 0 1-.164-.024c.104-.281.185-.57.242-.867.057-.297.086-.601.086-.914V4h1.813v1z"/>
</svg>
