<svg xmlns="http://www.w3.org/2000/svg" width="16" height="16" viewBox="0 0 16 16">
    <path fill="#FFF" fill-rule="evenodd" d="M8.262 10.767a2.842 2.842 0 1 1-.478-5.665 2.842 2.842 0 0 1 .478 5.665m5.449-8.358l-1.108-.936a.876.876 0 0 0-1.168.032l-.612.573a6.327 6.327 0 0 0-1.632-.527L9.018.706a.885.885 0 0 0-.935-.703L6.637.126a.88.88 0 0 0-.806.848l-.028.858c-.555.2-1.08.475-1.558.82l-.732-.486a.879.879 0 0 0-1.157.165L1.42 3.446a.876.876 0 0 0 .032 1.168l.64.683c-.221.5-.38 1.023-.471 1.562l-.915.186a.885.885 0 0 0-.703.936l.123 1.445a.88.88 0 0 0 .848.806l.988.032c.18.47.415.918.7 1.336l-.552.834a.879.879 0 0 0 .165 1.157l1.108.936a.876.876 0 0 0 1.168-.032l.725-.679c.475.222.974.387 1.488.486l.2.992a.885.885 0 0 0 .936.703l1.446-.123a.88.88 0 0 0 .805-.848l.032-.97a6.502 6.502 0 0 0 1.488-.753l.798.527a.879.879 0 0 0 1.157-.165l.936-1.108a.877.877 0 0 0-.032-1.168l-.643-.682c.235-.5.408-1.027.506-1.57l.88-.178a.885.885 0 0 0 .703-.936l-.123-1.446a.88.88 0 0 0-.848-.805l-.883-.029a6.39 6.39 0 0 0-.735-1.449l.482-.724a.874.874 0 0 0-.158-1.161"/>
</svg>
