<svg xmlns="http://www.w3.org/2000/svg" xmlns:xlink="http://www.w3.org/1999/xlink" width="16" height="16" viewBox="0 0 16 16">
    <defs>
        <path id="a" d="M9.043 6.318V.008H0v6.31z"/>
    </defs>
    <g fill="none" fill-rule="evenodd">
        <path fill="#3F4044" d="M4.933 7.545c-.127.257-.244.504-.25.775-.002.184.02.368.033.55.05.66.338 1.222.876 1.675.592.498 1.306.727 2.113.74a2.99 2.99 0 0 0 1.343-.293c-.01-.013-.014-.022-.021-.028-.283-.24-.565-.48-.852-.716-.03-.024-.089-.03-.133-.028-.171.005-.343.036-.512.022-.736-.058-1.267-.381-1.55-1.003-.119-.263-.118-.54-.116-.818 0-.04-.01-.094-.04-.12-.29-.25-.585-.498-.891-.756M3.214 6.06l-1.64-1.37L2.29 4l10.72 9.147-.769.69-1.171-1.018c-.241-.21-.483-.418-.72-.631-.061-.055-.114-.059-.191-.036a8.95 8.95 0 0 1-2.167.357c-1.22.049-2.388-.145-3.493-.614-1.48-.63-2.606-1.592-3.346-2.906-.205-.364-.203-.365 0-.732.467-.849 1.137-1.549 1.975-2.123l.071-.05c.006-.005.008-.012.015-.025"/>
        <g transform="translate(5.22 4.73)">
            <mask id="b" fill="#fff">
                <use xlink:href="#a"/>
            </mask>
            <path fill="#3F4044" d="M7.04 6.318L5.283 4.844c.31-.703.286-1.393-.088-2.057-.448-.796-1.198-1.247-2.17-1.404a4.195 4.195 0 0 0-1.656.084c-.03.007-.078.002-.1-.015C.853 1.097.437.739.022.382.015.377.013.37 0 .349.18.308.353.266.53.228A8.568 8.568 0 0 1 2.742.014a7.921 7.921 0 0 1 2.896.66c1.544.687 2.688 1.722 3.386 3.14a.222.222 0 0 1 .003.171c-.282.643-.725 1.191-1.253 1.687-.234.22-.484.426-.734.646" mask="url(#b)"/>
        </g>
        <path fill="#3F4044" d="M9.384 8.721l-1.853-1.61c.954-.042 1.9.563 1.853 1.61"/>
    </g>
</svg>
