<svg xmlns="http://www.w3.org/2000/svg" width="16" height="16" viewBox="0 0 16 16">
    <path fill="#3F4044" fill-rule="evenodd" d="M5.629 6.534h2.205c.029.006.06.01.09.007l.025-.001c.262 0 .483.327.489.716l-.321 1.075c-.204-.236-.47-.384-.763-.397-.015-.002-.029-.005-.044-.005H5.197l.432-1.395zM8.467 4.53a.312.312 0 0 0 .079.004l.03-.001c.25 0 .463.314.47.69l-.27.9c-.2-.238-.46-.39-.75-.413a.312.312 0 0 0-.08-.01H5.887l.362-1.17h2.217zm3.225 3.205l-2.58.009c-.006-.008-.02-.032-.02-.081v-.005l.432-1.444c.052.024.108.04.165.05a.324.324 0 0 0 .09.013l2.361-.008-.448 1.466zm-.628 2.054H8.58c-.029-.006-.07-.062-.081-.148l.336-1.126c.052.025.107.04.164.05a.313.313 0 0 0 .089.014l2.347-.008-.372 1.218zM13 5.849c0-.23-.165-.416-.366-.416h-.001l-2.831.01c-.006-.008-.02-.033-.02-.094l-.003-.048v-.062c0-.831-.518-1.505-1.16-1.539-.015-.001-.029-.004-.044-.004H6.508l.044-.14c.067-.217-.033-.455-.224-.532-.19-.077-.4.037-.467.255l-2.84 9.165c-.068.217.033.456.224.532.04.016.081.024.122.024.15 0 .292-.107.345-.278l1.226-3.958h2.293a.328.328 0 0 0 .08.002c.243 0 .448.295.467.654-.004.035-.012.068-.014.103-.03.533.277 1 .692 1.085a.327.327 0 0 0 .043.01c.007 0 .012.003.019.004a.321.321 0 0 0 .032.001h2.757c.173 0 .317-.136.355-.32a.436.436 0 0 0 .057-.118l1.26-4.123a.467.467 0 0 0 .018-.18L13 5.849z"/>
</svg>
