<svg xmlns="http://www.w3.org/2000/svg" width="15" height="20" viewBox="0 0 15 20">
    <path fill="#6A6B71" fill-rule="evenodd" d="M14.576 15.8c0-.067-1.267-3.867-1.267-7.133 0-2.867-1.667-5.067-4.2-5.734.133-.266.2-.6.2-.933 0-1.133-.867-2-2-2s-2 .867-2 2c0 .333.067.6.2.933-2.533.667-4.2 2.867-4.2 5.734 0 3.2-1.267 7.066-1.267 7.133-.133.333.067.667.334.8.133.067 1.666.8 4.333 1.067C4.91 19 5.976 20 7.31 20c1.4 0 2.533-1.067 2.667-2.4 1.333-.2 2.733-.467 4.2-.933.2-.067.333-.2.4-.334.066-.2.066-.4 0-.533zM6.642 2c0-.4.267-.667.667-.667s.667.267.667.667-.267.667-.667.667S6.642 2.4 6.642 2zm.667 16.667c-.6 0-1.067-.4-1.267-.867h.8c.534 0 1.134 0 1.667-.067-.133.534-.6.934-1.2.934zM1.442 15.6c.4-1.267 1.2-4.267 1.2-6.933C2.642 5.933 4.576 4 7.31 4c2.733 0 4.667 1.933 4.667 4.667 0 2.666.8 5.6 1.133 6.866-5.933 1.734-10.2.6-11.667.067z"/>
</svg>
